# xmcd CD database file
#
# Track frame offsets:
#	183
#	16158
#	28758
#	42258
#	59433
#	73758
#	90808
#	105183
#	119883
#	134583
#	147708
#	163758
#
# Disc length: 2374 seconds
#
# Revision: 3
# Processed by: cddbd v1.5.2PL0 Copyright (c) Steve Scherf et al.
# Submitted via: CDex 1.51
#
DISCID=aa09440c
DTITLE=Truck Stop - Ich möcht' so gern Dave Dudley hör'n
DYEAR=1995
DGENRE=Country
TTITLE0=Ich möcht so gern Dave Dudley hör'n
TTITLE1=Der wilde wilde Westen
TTITLE2=Take it easy, altes Haus
TTITLE3=Old Texas Town
TTITLE4=Angeln entspannt
TTITLE5=Vater and Sohn
TTITLE6=Die Lady und der Tramp
TTITLE7=Louisiana Ladies
TTITLE8=Ein Tag wie ein Freund
TTITLE9=Die Frau mit dem Gurt
TTITLE10=Freunde bleiben
TTITLE11=Mein Stiefel kommt in' Himmel
EXTD=YEAR: 1995
EXTT0=
EXTT1=
EXTT2=
EXTT3=
EXTT4=
EXTT5=
EXTT6=
EXTT7=
EXTT8=
EXTT9=
EXTT10=
EXTT11=
PLAYORDER=
